<svg width="20" height="20" class="hidden">
  <symbol fill="none" xmlns="http://www.w3.org/2000/svg" viewBox="0 0 23 30" id="health">
    <path d="M22.09 6.152L16.354.41a1.405 1.405 0 00-.997-.41H15v7.5h7.5v-.357c0-.37-.146-.727-.41-.99zM13.125 7.97V0H1.406C.627 0 0 .627 0 1.406v27.188C0 29.373.627 30 1.406 30h19.688c.779 0 1.406-.627 1.406-1.406V9.375h-7.969a1.41 1.41 0 01-1.406-1.406zm3.75 9.375v2.812a.47.47 0 01-.469.469h-3.281v3.281a.47.47 0 01-.469.469H9.844a.47.47 0 01-.469-.469v-3.281H6.094a.47.47 0 01-.469-.469v-2.812a.47.47 0 01.469-.469h3.281v-3.281a.47.47 0 01.469-.469h2.812a.47.47 0 01.469.469v3.281h3.281a.47.47 0 01.469.469z" fill="#666666"></path>
  </symbol>
  <symbol fill="none" xmlns="http://www.w3.org/2000/svg" viewBox="0 0 30 28" id="heart">
    <path d="M18.762 13.285L15.85 19.11c-.352.71-1.371.686-1.694-.035l-3.334-7.4-1.758 4.201H3.551l10.693 10.928c.416.427 1.09.427 1.506 0l10.7-10.928h-6.393l-1.295-2.59zm8.994-9.955l-.14-.146a7.676 7.676 0 00-10.981 0L15 4.859l-1.635-1.67a7.666 7.666 0 00-10.98 0l-.14.141C-.61 6.248-.733 10.895 1.815 14h6L9.92 8.95c.316-.757 1.383-.774 1.723-.024l3.41 7.576 2.87-5.736a.936.936 0 011.677 0L21.216 14h6.966c2.55-3.105 2.426-7.752-.427-10.67z" fill="#666666"></path>
  </symbol>
  <symbol fill="none" xmlns="http://www.w3.org/2000/svg" viewBox="0 0 30 30" id="search">
    <path d="M29.59 25.94l-5.842-5.842a1.405 1.405 0 00-.996-.41h-.955a12.128 12.128 0 002.578-7.5C24.375 5.455 18.92 0 12.187 0 5.455 0 0 5.455 0 12.188c0 6.732 5.455 12.187 12.188 12.187 2.83 0 5.431-.96 7.5-2.578v.955c0 .375.146.732.41.996l5.841 5.842a1.4 1.4 0 001.987 0l1.658-1.658c.55-.551.55-1.442.006-1.992zm-17.402-6.253a7.496 7.496 0 01-7.5-7.5c0-4.142 3.351-7.5 7.5-7.5 4.142 0 7.5 3.352 7.5 7.5 0 4.143-3.352 7.5-7.5 7.5z" fill="#666666"></path>
  </symbol>
  <symbol fill="none" xmlns="http://www.w3.org/2000/svg" viewBox="0 0 30 30" id="skull">
    <path d="M15 0C6.715 0 0 5.877 0 13.125c0 4.107 2.162 7.77 5.537 10.178.563.404.89 1.06.791 1.752l-.55 3.879A.93.93 0 006.697 30h4.552v-3.281a.47.47 0 01.469-.469h.937a.47.47 0 01.469.469V30h3.75v-3.281a.47.47 0 01.469-.469h.937a.47.47 0 01.469.469V30h4.553a.93.93 0 00.92-1.066l-.551-3.88c-.1-.685.223-1.347.79-1.751C27.839 20.894 30 17.233 30 13.125 30 5.877 23.285 0 15 0zM9.375 18.75A3.753 3.753 0 015.625 15a3.753 3.753 0 013.75-3.75 3.753 3.753 0 013.75 3.75 3.753 3.753 0 01-3.75 3.75zm11.25 0a3.753 3.753 0 01-3.75-3.75 3.753 3.753 0 013.75-3.75 3.753 3.753 0 013.75 3.75 3.753 3.753 0 01-3.75 3.75z" fill="#666"></path>
  </symbol>
</svg>